<svg width="326" height="117" viewBox="0 0 326 117" fill="none" xmlns="http://www.w3.org/2000/svg">
<path fill-rule="evenodd" clip-rule="evenodd" d="M48.7468 5.2686V10.5372L47.8498 10.3523C46.6014 10.0948 40.0453 10.6467 37.2205 11.247C18.7631 15.1696 4.74432 29.6454 0.664891 48.9944C0.0984362 51.6815 0 53.0801 0 58.4545C0 63.8523 0.0975414 65.2269 0.675928 67.9918C1.92338 73.9545 4.3637 80.0787 7.39464 84.8541L8.62658 86.7951L8.77573 75.1636L8.92488 63.532L13.6975 60.6918C16.3225 59.1295 18.571 57.8487 18.6939 57.8453C18.8168 57.842 18.9176 66.4886 18.9176 77.0602V96.281L21.2115 97.6661C22.473 98.4275 23.5516 99.0028 23.6083 98.9444C23.6649 98.8859 23.7252 86.3025 23.7419 70.9813C23.7589 55.6601 23.8547 43.0007 23.9552 42.8496C24.0557 42.6982 26.2854 41.3012 28.9104 39.7444L33.683 36.9143L33.7588 71.0533L33.8349 105.193L35.9026 106.438C37.0397 107.123 38.1804 107.767 38.4366 107.868C38.8581 108.035 38.9031 104.463 38.9031 70.8367V33.6203L43.6355 30.8086C46.2384 29.262 48.4532 27.9966 48.5573 27.9966C48.6614 27.9966 48.7488 47.2749 48.7512 70.8376C48.7539 94.4 48.8544 113.822 48.975 113.996C49.383 114.588 53.5245 116.942 53.8228 116.752C54.0173 116.628 54.1175 97.08 54.1145 59.8645C54.11 6.38108 54.0805 3.13993 53.591 2.70275C53.0159 2.18928 49.25 0 48.9418 0C48.8345 0 48.7468 2.37079 48.7468 5.2686ZM63.9596 60.0192V111.116L65.9731 109.961C67.0806 109.326 68.2207 108.658 68.5071 108.477C68.9963 108.168 69.0323 106.224 69.1036 76.38L69.1797 44.6119L74.0201 47.4567L78.8605 50.3016L78.8796 71.6837L78.8983 93.0657L81.061 90.7266C86.4335 84.915 90.5147 76.6618 92.3572 67.8835C92.9121 65.2389 93.0123 63.7972 93.0123 58.4545C93.0123 51.331 92.589 48.5326 90.6364 42.7465C87.1255 32.3432 79.9224 23.0932 70.8949 17.3951L69.0306 16.2184V13.9814V11.7447L66.6583 10.3335C65.3532 9.557 64.2123 8.922 64.1228 8.922C64.033 8.922 63.9596 31.9158 63.9596 60.0192ZM215.193 12.0281C198.238 13.8079 185.599 23.2741 180.628 37.9145C178.858 43.1293 178.36 46.7337 178.362 54.3011C178.365 61.7212 178.673 64.1086 180.286 69.199C182.035 74.7196 184.381 78.6794 188.471 83.0171C195.376 90.3383 204.718 94.3843 217.118 95.4239C225.616 96.1364 235.657 94.5628 242.711 91.413L244.128 90.7801V78.7527C244.128 69.2095 244.051 66.7735 243.755 66.9608C243.55 67.0907 242.845 67.5685 242.189 68.0223C239.585 69.8236 234.877 71.3649 230.116 71.975C217.535 73.5871 208.362 69.2563 205.314 60.2657C204.438 57.6792 204.349 51.6593 205.144 48.6317C206.856 42.1063 211.247 37.645 217.883 35.6865C221.021 34.7604 226.94 34.5269 230.596 35.1853C234.26 35.8449 237.812 37.0343 240.697 38.5677C242.01 39.2651 243.186 39.8838 243.311 39.9423C243.436 40.001 243.503 34.7438 243.46 28.2594L243.382 16.47L241.294 15.603C238.451 14.4229 233.266 13.0252 229.66 12.4674C225.771 11.8656 218.768 11.6531 215.193 12.0281ZM108.405 53.6858V93.8348L128.763 93.8339C140.643 93.8333 150.55 93.6979 152.552 93.5087C157.324 93.058 161.477 92.1446 164.633 90.8524C171.109 88.2001 175.023 84.2114 176.927 78.3223C177.664 76.0431 177.731 75.4291 177.737 70.9145C177.743 66.3175 177.689 65.8314 176.919 63.5646C175.94 60.6856 175.031 59.0157 173.406 57.1119C171.883 55.3278 168.285 52.8376 165.973 51.9682C164.99 51.5984 164.185 51.2529 164.185 51.2003C164.185 51.1474 165.154 50.5791 166.339 49.9374C170.343 47.7672 173.047 44.2304 174.241 39.6029C174.922 36.9605 174.924 30.9633 174.244 28.3689C173.353 24.9678 172.295 23.0818 169.878 20.5797C167.142 17.7483 164.163 16.1461 159.413 14.9502C154.422 13.694 151.056 13.5374 129.062 13.5371L108.405 13.5368V53.6858ZM248.602 53.6858V93.8348H261.428H274.255V79.5181V65.2014L277.274 65.2891L280.293 65.3767L288.518 79.6058L296.744 93.8348H310.888H325.033L324.605 93.1426C321.414 87.9882 300.969 53.3791 301.016 53.2117C301.051 53.0862 306.268 44.2811 312.608 33.6449C318.949 23.0083 324.204 14.1315 324.286 13.9183C324.404 13.6094 321.574 13.547 310.318 13.6107L296.202 13.6907L288.544 27.689L280.887 41.6873L277.571 41.7744L274.255 41.8614V27.6991V13.5368H261.428H248.602V53.6858ZM134.058 39.0722V44.9177H139.816C145.353 44.9177 145.631 44.8881 147.05 44.1538C148.878 43.2074 149.911 41.702 150.096 39.714C150.347 37.0229 149.213 34.8198 147.057 33.8101C146.006 33.3178 145.038 33.2394 139.949 33.2335L134.058 33.2268V39.0722ZM134.058 67.6792V74.1852L141.142 74.088L148.227 73.9911L149.615 73.1493C151.608 71.9412 152.354 70.2457 152.208 67.2593C152.115 65.3555 151.967 64.8343 151.239 63.8501C149.615 61.655 148.559 61.3935 140.844 61.276L134.058 61.1729V67.6792ZM211.912 100.74C211.912 101.714 212.685 102.142 214.448 102.142C216.222 102.142 216.983 101.716 216.983 100.722C216.983 99.9941 216.915 99.9559 216.014 100.181C214.783 100.488 213.772 100.496 212.732 100.205C211.998 100 211.912 100.056 211.912 100.74ZM120.863 103.046C118.446 103.847 117.143 105.437 116.856 107.938C116.564 110.486 117.76 112.928 119.85 114.047C121.036 114.682 124.106 114.682 125.285 114.047C127.439 112.888 128.59 110.541 128.29 107.923C128.065 105.969 127.23 104.6 125.732 103.732C124.396 102.957 122.104 102.634 120.863 103.046ZM133.909 102.892C133.745 102.957 133.252 103.092 132.813 103.191C131.655 103.454 130.178 104.852 129.548 106.282C127.479 110.98 131.349 115.546 136.444 114.419C137.929 114.091 137.936 114.083 137.936 112.873C137.936 111.766 137.884 111.686 137.359 111.976C137.042 112.151 136.037 112.294 135.127 112.294C132.92 112.294 131.684 111.252 131.467 109.208C131.16 106.318 133.888 104.256 136.659 105.284C137.361 105.544 137.936 105.636 137.936 105.488C137.936 105.339 138.741 105.218 139.726 105.218H141.515V109.833V114.448H142.709H143.902V109.833V105.218H145.542H147.183V104.117V103.015L142.037 103.072C139.207 103.104 136.288 103.05 135.55 102.952C134.811 102.853 134.073 102.827 133.909 102.892ZM151.806 102.893C151.642 102.958 151.142 103.094 150.693 103.196C148.272 103.746 146.484 107.25 147.177 110.091C147.885 112.998 149.802 114.5 152.841 114.53C156.177 114.562 158.539 112.258 158.563 108.947C158.57 108.11 158.479 107.102 158.363 106.707C158.04 105.615 156.797 104.04 155.865 103.543C155.031 103.098 152.367 102.671 151.806 102.893ZM172.737 103.118C169.24 104.119 167.594 108.884 169.656 112.041C171.031 114.147 174.623 115.181 177.087 114.181C177.771 113.903 177.907 113.664 177.907 112.73C177.907 111.778 177.83 111.649 177.385 111.858C177.098 111.993 176.125 112.152 175.222 112.211C172.263 112.406 170.609 110.494 171.335 107.716C171.913 105.501 174.334 104.391 176.527 105.336C177.122 105.592 177.609 105.671 177.609 105.51C177.609 105.349 178.414 105.218 179.398 105.218H181.188V109.833V114.448H182.381H183.574V109.833V105.218H185.215H186.856V104.141V103.064H182.381C179.496 103.064 177.907 103.178 177.907 103.383C177.907 103.596 177.726 103.602 177.362 103.401C176.486 102.917 173.975 102.764 172.737 103.118ZM200.886 103.118C197.542 104.108 195.996 108.119 197.623 111.586C199.218 114.986 204.637 115.648 207.108 112.745C209.157 110.338 209.057 106.816 206.876 104.566C205.296 102.937 203.206 102.431 200.886 103.118ZM233.584 103.206C231.219 104.075 230.005 105.959 230.005 108.756C230.005 111.873 231.571 113.859 234.477 114.427C238.419 115.198 241.427 112.776 241.438 108.821C241.446 105.8 240.084 103.863 237.416 103.101C235.877 102.661 234.999 102.685 233.584 103.206ZM258.296 102.893C258.132 102.958 257.639 103.092 257.201 103.191C255.327 103.616 253.395 106.335 253.381 108.567C253.363 111.424 254.952 113.626 257.529 114.316C258.361 114.538 259.343 114.645 259.713 114.554C260.082 114.462 261.368 114.391 262.57 114.398L264.756 114.408L265.184 113.351L265.613 112.294H268.089H270.565L271.063 113.371L271.561 114.448H273.667C275.488 114.448 275.87 114.348 276.483 113.716C277.372 112.799 278.093 110.353 278.335 107.434L278.521 105.189L280.042 105.281L281.563 105.372L281.646 109.928L281.728 114.484L282.839 114.389L283.949 114.294V108.756V103.218L280.188 103.132L276.427 103.047L276.215 105.748C275.828 110.69 275.357 111.97 273.774 112.365C273.208 112.506 272.955 112.044 271.275 107.793L269.407 103.064H268.137H266.867L264.754 108.372C263.153 112.393 262.638 113.428 262.631 112.646C262.623 111.775 262.54 111.651 262.1 111.858C261.167 112.296 258.33 112.329 257.551 111.911C257.141 111.691 256.55 111.023 256.238 110.426C254.617 107.323 257.96 103.922 261.241 105.336L262.323 105.802V104.62C262.323 103.857 262.166 103.376 261.879 103.262C261.263 103.018 258.659 102.75 258.296 102.893ZM107.51 108.756V114.448L110.418 114.441C113.861 114.433 115.666 113.791 116.183 112.388C116.629 111.178 116.269 109.613 115.412 109.034L114.691 108.547L115.298 107.701C116.247 106.376 115.985 104.657 114.7 103.767C113.807 103.148 113.318 103.064 110.598 103.064H107.51V108.756ZM159.711 108.756V114.448H160.904H162.097V112.14V109.833H162.983C163.752 109.833 164.068 110.137 165.379 112.14C166.833 114.363 166.932 114.448 168.072 114.448C168.724 114.448 169.256 114.373 169.256 114.282C169.256 114.191 168.447 112.875 167.458 111.358L165.66 108.6L167.17 106.293C169.262 103.095 169.268 103.064 167.805 103.064C166.615 103.064 166.555 103.118 165.163 105.371C163.955 107.326 163.613 107.678 162.918 107.679L162.097 107.679V105.372V103.064H160.904H159.711V108.756ZM187.75 108.722V114.448H188.944H190.137V112.644V110.84L192.062 110.681C194.551 110.475 195.834 109.714 196.337 108.144C196.65 107.17 196.65 106.722 196.337 105.726C195.697 103.685 194.801 103.245 191.015 103.112L187.75 102.997V108.722ZM209.526 108.756V114.448H210.658C211.76 114.448 211.853 114.356 214.103 111.072C215.375 109.216 216.543 107.616 216.699 107.516C216.873 107.406 216.983 108.72 216.983 110.892V114.448H218.027H219.071V108.756V103.064H218.041C217.069 103.064 216.875 103.262 214.536 106.635L212.061 110.206L211.977 106.635L211.893 103.064H210.709H209.526V108.756ZM220.861 108.756V114.448H222.054H223.247V112.14V109.833H224.133C224.902 109.833 225.217 110.137 226.528 112.14C227.983 114.363 228.082 114.448 229.222 114.448C229.873 114.448 230.406 114.373 230.406 114.282C230.406 114.191 229.597 112.875 228.608 111.358L226.81 108.6L228.319 106.293C230.409 103.099 230.416 103.064 228.97 103.064C227.798 103.064 227.731 103.124 226.35 105.372C225.133 107.354 224.814 107.679 224.09 107.679H223.247V105.372V103.064H222.054H220.861V108.756ZM242.636 108.756V114.448H243.829H245.022V112.14V109.833H247.409H249.795V112.14V114.448H250.988H252.181V108.756V103.064H250.988H249.795V105.372V107.679H247.409H245.022V105.372V103.064H243.829H242.636V108.756ZM284.695 104.141V105.218H286.336H287.976V109.833V114.448H289.17H290.363V109.833V105.218H292.003H293.644V104.141V103.064H289.17H284.695V104.141ZM294.539 108.738V114.448H295.574C296.556 114.448 296.734 114.263 299.078 110.833L301.549 107.218L301.633 110.833L301.717 114.448H302.9H304.084V108.756V103.064H302.952C301.85 103.064 301.757 103.156 299.507 106.44C298.235 108.296 297.1 109.875 296.985 109.949C296.87 110.022 296.776 108.538 296.776 106.65V103.218L295.657 103.123L294.539 103.027V108.738ZM305.576 108.756V114.448H306.769H307.962V112.14V109.833H310.497H313.033V112.159V114.485L314.151 114.389L315.27 114.294L315.351 108.679L315.433 103.064H314.233H313.033V105.372V107.679H310.497H307.962V105.372V103.064H306.769H305.576V108.756ZM316.911 108.756V114.448H318.104H319.297V109.833V105.218H321.982H324.666V104.141V103.064H320.788H316.911V108.756ZM109.732 105.304C109.634 105.567 109.597 106.174 109.65 106.654C109.743 107.491 109.811 107.525 111.352 107.525C112.641 107.525 113.036 107.401 113.364 106.891C113.999 105.904 113.332 105.244 111.469 105.017C110.217 104.864 109.874 104.921 109.732 105.304ZM120.725 105.586C119.741 106.077 119.045 107.835 119.24 109.337C119.605 112.14 122.806 113.308 124.881 111.396C125.764 110.583 125.855 110.335 125.855 108.756C125.855 107.177 125.764 106.93 124.881 106.116C124.117 105.411 123.635 105.223 122.644 105.239C121.949 105.25 121.086 105.407 120.725 105.586ZM150.664 105.847C149.16 107.067 149.036 110.192 150.44 111.502C151.211 112.222 153.215 112.468 154.35 111.983C155.511 111.487 156.132 110.253 156.132 108.44C156.132 107.277 155.972 106.852 155.26 106.117C154.531 105.366 154.145 105.218 152.914 105.218C151.88 105.218 151.207 105.406 150.664 105.847ZM190.137 106.948V108.679L191.788 108.537C193.67 108.376 194.089 108.074 194.089 106.88C194.089 105.742 193.295 105.218 191.571 105.218H190.137V106.948ZM200.801 105.55C199.504 106.329 198.98 109.057 199.809 110.711C200.617 112.322 203.388 112.853 204.84 111.674C206.535 110.299 206.543 107.219 204.855 105.85C204.003 105.159 201.732 104.991 200.801 105.55ZM233.6 105.838C231.94 107.185 231.932 110.321 233.586 111.662C235.075 112.871 237.964 112.277 238.7 110.611C239.46 108.892 238.877 106.25 237.582 105.535C236.597 104.991 234.442 105.155 233.6 105.838ZM267.277 107.837C266.849 108.938 266.499 109.907 266.499 109.99C266.499 110.073 267.252 110.141 268.172 110.141C269.645 110.141 269.82 110.076 269.638 109.602C269.524 109.306 269.164 108.337 268.839 107.449C268.513 106.56 268.203 105.833 268.15 105.833C268.097 105.833 267.704 106.735 267.277 107.837ZM109.598 110.91V112.294H111.477C113.409 112.294 114.073 111.97 114.073 111.024C114.073 109.995 113.225 109.525 111.367 109.525H109.598V110.91Z" fill="white"/>
</svg>
